<mxfile host="app.diagrams.net" agent="Mozilla/5.0 (Macintosh; Intel Mac OS X 10_15_7) AppleWebKit/537.36 (KHTML, like Gecko) Chrome/134.0.0.0 Safari/537.36 Edg/134.0.0.0" version="26.1.3">
  <diagram name="第 1 页" id="lDRHs1vWMW8rRtZhULNQ">
    <mxGraphModel dx="1426" dy="708" grid="1" gridSize="10" guides="1" tooltips="1" connect="1" arrows="1" fold="1" page="1" pageScale="1" pageWidth="827" pageHeight="1169" math="0" shadow="0">
      <root>
        <mxCell id="0" />
        <mxCell id="1" parent="0" />
        <mxCell id="Ms6r0AXBp3TNDa4eyP1D-1" value="上游服务" style="rounded=1;whiteSpace=wrap;html=1;" vertex="1" parent="1">
          <mxGeometry x="270" y="80" width="110" height="50" as="geometry" />
        </mxCell>
        <mxCell id="Ms6r0AXBp3TNDa4eyP1D-2" value="&amp;nbsp;Redis" style="shape=cylinder3;whiteSpace=wrap;html=1;boundedLbl=1;backgroundOutline=1;size=15;fillColor=#fff2cc;strokeColor=#d6b656;" vertex="1" parent="1">
          <mxGeometry x="295" y="200" width="60" height="80" as="geometry" />
        </mxCell>
        <mxCell id="Ms6r0AXBp3TNDa4eyP1D-3" value="" style="endArrow=classic;html=1;rounded=0;exitX=0.5;exitY=1;exitDx=0;exitDy=0;entryX=0.5;entryY=0;entryDx=0;entryDy=0;entryPerimeter=0;" edge="1" parent="1" source="Ms6r0AXBp3TNDa4eyP1D-1" target="Ms6r0AXBp3TNDa4eyP1D-2">
          <mxGeometry width="50" height="50" relative="1" as="geometry">
            <mxPoint x="100" y="250" as="sourcePoint" />
            <mxPoint x="150" y="200" as="targetPoint" />
          </mxGeometry>
        </mxCell>
        <mxCell id="Ms6r0AXBp3TNDa4eyP1D-4" value="&amp;nbsp;修改或者删除键值对" style="edgeLabel;html=1;align=center;verticalAlign=middle;resizable=0;points=[];" vertex="1" connectable="0" parent="Ms6r0AXBp3TNDa4eyP1D-3">
          <mxGeometry x="-0.0571" y="1" relative="1" as="geometry">
            <mxPoint as="offset" />
          </mxGeometry>
        </mxCell>
        <mxCell id="Ms6r0AXBp3TNDa4eyP1D-5" value="" style="endArrow=classic;html=1;rounded=0;exitX=1;exitY=0.5;exitDx=0;exitDy=0;entryX=1;entryY=0.5;entryDx=0;entryDy=0;entryPerimeter=0;" edge="1" parent="1" source="Ms6r0AXBp3TNDa4eyP1D-1" target="Ms6r0AXBp3TNDa4eyP1D-2">
          <mxGeometry width="50" height="50" relative="1" as="geometry">
            <mxPoint x="590" y="120" as="sourcePoint" />
            <mxPoint x="640" y="70" as="targetPoint" />
            <Array as="points">
              <mxPoint x="440" y="105" />
              <mxPoint x="440" y="170" />
              <mxPoint x="440" y="240" />
            </Array>
          </mxGeometry>
        </mxCell>
        <mxCell id="Ms6r0AXBp3TNDa4eyP1D-6" value="发布消息 pub&lt;div&gt;消息内容为键名称&lt;/div&gt;" style="edgeLabel;html=1;align=center;verticalAlign=middle;resizable=0;points=[];" vertex="1" connectable="0" parent="Ms6r0AXBp3TNDa4eyP1D-5">
          <mxGeometry x="-0.1929" y="-1" relative="1" as="geometry">
            <mxPoint as="offset" />
          </mxGeometry>
        </mxCell>
        <mxCell id="Ms6r0AXBp3TNDa4eyP1D-7" value="下游服务" style="rounded=1;whiteSpace=wrap;html=1;" vertex="1" parent="1">
          <mxGeometry x="270" y="330" width="110" height="50" as="geometry" />
        </mxCell>
        <mxCell id="Ms6r0AXBp3TNDa4eyP1D-8" value="" style="endArrow=classic;html=1;rounded=0;entryX=0;entryY=0.5;entryDx=0;entryDy=0;entryPerimeter=0;exitX=0;exitY=0.5;exitDx=0;exitDy=0;" edge="1" parent="1" source="Ms6r0AXBp3TNDa4eyP1D-7" target="Ms6r0AXBp3TNDa4eyP1D-2">
          <mxGeometry width="50" height="50" relative="1" as="geometry">
            <mxPoint x="230" y="420" as="sourcePoint" />
            <mxPoint x="280" y="370" as="targetPoint" />
            <Array as="points">
              <mxPoint x="220" y="355" />
              <mxPoint x="220" y="330" />
              <mxPoint x="220" y="240" />
            </Array>
          </mxGeometry>
        </mxCell>
        <mxCell id="Ms6r0AXBp3TNDa4eyP1D-9" value="订阅消息" style="edgeLabel;html=1;align=center;verticalAlign=middle;resizable=0;points=[];" vertex="1" connectable="0" parent="Ms6r0AXBp3TNDa4eyP1D-8">
          <mxGeometry y="2" relative="1" as="geometry">
            <mxPoint as="offset" />
          </mxGeometry>
        </mxCell>
        <mxCell id="Ms6r0AXBp3TNDa4eyP1D-12" value="" style="endArrow=classic;html=1;rounded=0;exitX=0.5;exitY=1;exitDx=0;exitDy=0;entryX=0.5;entryY=0;entryDx=0;entryDy=0;" edge="1" parent="1" source="Ms6r0AXBp3TNDa4eyP1D-7" target="Ms6r0AXBp3TNDa4eyP1D-13">
          <mxGeometry width="50" height="50" relative="1" as="geometry">
            <mxPoint x="360" y="470" as="sourcePoint" />
            <mxPoint x="325" y="420" as="targetPoint" />
          </mxGeometry>
        </mxCell>
        <mxCell id="Ms6r0AXBp3TNDa4eyP1D-13" value="删除本地缓存" style="rounded=1;whiteSpace=wrap;html=1;" vertex="1" parent="1">
          <mxGeometry x="272.5" y="420" width="105" height="50" as="geometry" />
        </mxCell>
      </root>
    </mxGraphModel>
  </diagram>
</mxfile>
